<?xml version="1.0" encoding="UTF-8" standalone="no"?>
<!-- Created with Inkscape (http://www.inkscape.org/) -->

<svg
   xmlns:dc="http://purl.org/dc/elements/1.1/"
   xmlns:cc="http://creativecommons.org/ns#"
   xmlns:rdf="http://www.w3.org/1999/02/22-rdf-syntax-ns#"
   xmlns:svg="http://www.w3.org/2000/svg"
   xmlns="http://www.w3.org/2000/svg"
   xmlns:sodipodi="http://sodipodi.sourceforge.net/DTD/sodipodi-0.dtd"
   xmlns:inkscape="http://www.inkscape.org/namespaces/inkscape"
   width="210mm"
   height="297mm"
   viewBox="0 0 210 297"
   version="1.1"
   id="svg8"
   sodipodi:docname="graphics.svg"
   inkscape:version="0.92.3 (2405546, 2018-03-11)">
  <defs
     id="defs2">
    <clipPath
       clipPathUnits="userSpaceOnUse"
       id="clipPath934">
      <path
         style="fill:#000000;fill-opacity:1;stroke:none;stroke-width:0.94110429;stroke-miterlimit:4;stroke-dasharray:none;stroke-opacity:1"
         d="m 73.591891,127.58239 c -0.42387,-0.01 -0.829921,0.0781 -1.208712,0.3421 -0.915339,1.26594 1.192353,2.93485 2.4784,4.4943 -2.041708,1.86979 -3.811937,5.067 -4.302578,8.23464 -0.587692,3.7942 -0.122788,7.59259 2.320788,9.22889 1.030205,0.6899 3.992991,0.65423 5.229656,0.65423 1.169646,0 4.261575,0.0767 5.249807,-0.54467 2.534952,-1.59398 3.333623,-5.54958 2.300637,-9.33845 -0.81824,-3.0012 -2.956764,-7.02668 -5.17643,-8.8775 0.780769,-1.13823 1.581203,-2.23741 1.228349,-3.70158 -0.341921,-0.0554 -0.628092,-0.18859 -1.013891,-0.0641 -1.249045,0.4031 -2.608996,0.42155 -4.141351,0.22118 -1.012243,-0.13236 -2.032164,-0.62718 -2.964675,-0.64906 z"
         id="path936"
         inkscape:connector-curvature="0" />
    </clipPath>
    <clipPath
       clipPathUnits="userSpaceOnUse"
       id="clipPath1017">
      <path
         style="fill:#000000;fill-opacity:1;stroke:none;stroke-width:1;stroke-miterlimit:4;stroke-dasharray:none;stroke-opacity:1"
         d="m 87.731079,127.75137 v 16.23674 h 8.924004 v -16.23674 z m 10.527522,0 v 16.23674 H 108.5112 v -16.23674 z"
         id="path1019"
         inkscape:connector-curvature="0" />
    </clipPath>
  </defs>
  <sodipodi:namedview
     id="base"
     pagecolor="#ffffff"
     bordercolor="#666666"
     borderopacity="1.0"
     inkscape:pageopacity="0.0"
     inkscape:pageshadow="2"
     inkscape:zoom="0.7071068"
     inkscape:cx="237.44754"
     inkscape:cy="492.35104"
     inkscape:document-units="mm"
     inkscape:current-layer="layer1"
     showgrid="false"
     inkscape:window-width="1362"
     inkscape:window-height="675"
     inkscape:window-x="0"
     inkscape:window-y="72"
     inkscape:window-maximized="0" />
  <metadata
     id="metadata5">
    <rdf:RDF>
      <cc:Work
         rdf:about="">
        <dc:format>image/svg+xml</dc:format>
        <dc:type
           rdf:resource="http://purl.org/dc/dcmitype/StillImage" />
      </cc:Work>
    </rdf:RDF>
  </metadata>
  <g
     inkscape:label="Layer 1"
     inkscape:groupmode="layer"
     id="layer1">
    <rect
       style="fill:#4d4d4d;fill-opacity:1;stroke:none;stroke-width:1.36614215;stroke-miterlimit:4;stroke-dasharray:none;stroke-opacity:1"
       id="rect960"
       width="82.729309"
       height="61.701649"
       x="54.805084"
       y="122.95393" />
    <path
       inkscape:connector-curvature="0"
       id="path841"
       d="m 49.738085,113.57747 c -0.42387,-0.01 -0.829919,0.0781 -1.208712,0.3421 -0.915339,1.26594 1.192353,2.93485 2.478402,4.4943 -2.04171,1.86979 -3.811939,5.067 -4.30258,8.23464 -0.587692,3.7942 -0.122787,7.59259 2.320788,9.22889 1.030205,0.6899 3.992991,0.65423 5.229656,0.65423 1.169646,0 4.261575,0.0767 5.249807,-0.54467 2.534952,-1.59398 3.333623,-5.54958 2.300637,-9.33845 -0.81824,-3.0012 -2.956764,-7.02668 -5.17643,-8.8775 0.780769,-1.13823 1.581203,-2.23741 1.228349,-3.70158 -0.341921,-0.0554 -0.628092,-0.18859 -1.013891,-0.0641 -1.249045,0.4031 -2.608996,0.42155 -4.141349,0.22118 -1.012245,-0.13236 -2.032164,-0.62718 -2.964677,-0.64906 z"
       style="fill:#000000;fill-opacity:1;stroke:none;stroke-width:0.94110429;stroke-miterlimit:4;stroke-dasharray:none;stroke-opacity:1" />
    <path
       style="fill:#ffffff;stroke:none;stroke-width:0.26458332px;stroke-linecap:butt;stroke-linejoin:miter;stroke-opacity:1"
       d="m 73.25651,131.72991 c 2.989443,0.83821 5.540705,0.0882 8.405426,-0.6326 l -0.162498,0.65356 c -2.985007,1.32394 -5.400636,0.91626 -8.148435,0.99486 z"
       id="path846"
       inkscape:connector-curvature="0"
       sodipodi:nodetypes="ccccc"
       clip-path="url(#clipPath934)"
       transform="translate(-23.853805,-14.004923)" />
    <g
       aria-label="$"
       style="font-style:normal;font-weight:normal;font-size:11.45779419px;line-height:1.25;font-family:sans-serif;letter-spacing:0px;word-spacing:0px;fill:#000000;fill-opacity:1;stroke:none;stroke-width:0.28644487"
       id="text850"
       transform="translate(-23.853805,-14.004923)">
      <path
         inkscape:connector-curvature="0"
         d="m 77.965155,145.32842 q -2.383311,-0.10071 -2.774935,-2.00848 l 0.951087,-0.207 q 0.139866,0.66576 0.581841,1.00144 0.44757,0.33568 1.242007,0.38603 v -2.77493 q -0.990249,-0.24617 -1.370683,-0.44198 -0.37484,-0.19581 -0.609815,-0.44757 -0.229379,-0.25735 -0.335677,-0.54827 -0.100703,-0.29092 -0.100703,-0.69933 0,-0.86717 0.626598,-1.3539 0.632192,-0.49233 1.79028,-0.54268 v -0.7329 h 0.693734 v 0.7329 q 1.046195,0.0503 1.616847,0.47554 0.570651,0.4196 0.805626,1.31474 l -0.973465,0.18462 q -0.111893,-0.52589 -0.453165,-0.81681 -0.341272,-0.29652 -0.995843,-0.35806 v 2.48961 q 1.001438,0.23497 1.421035,0.43079 0.425191,0.19581 0.671355,0.44197 0.246163,0.24617 0.37484,0.58184 0.128676,0.33568 0.128676,0.78885 0,0.92311 -0.67695,1.48257 -0.676949,0.55946 -1.918956,0.62101 v 0.90632 h -0.693734 z m 2.327364,-2.0924 q 0,-0.36365 -0.14546,-0.59862 -0.14546,-0.23497 -0.419597,-0.38603 -0.274136,-0.15665 -1.068573,-0.36365 v 2.61829 q 0.788842,-0.0504 1.208439,-0.37484 0.425191,-0.32449 0.425191,-0.89515 z m -3.781967,-3.65888 q 0,0.33008 0.139866,0.55946 0.139866,0.22938 0.414002,0.38603 0.279731,0.15665 0.900735,0.3133 v -2.35534 q -1.454603,0.0783 -1.454603,1.09655 z"
         style="font-style:normal;font-variant:normal;font-weight:normal;font-stretch:normal;font-family:'Liberation Sans';-inkscape-font-specification:'Liberation Sans';fill:#ffffff;stroke-width:0.28644487"
         id="path852" />
    </g>
    <g
       id="g1040">
      <circle
         r="6.8799505"
         cy="136.87904"
         cx="79.700691"
         id="path1025"
         style="fill:#000000;fill-opacity:1;stroke:#ffffff;stroke-width:0.96773005;stroke-miterlimit:4;stroke-dasharray:none;stroke-opacity:1" />
      <text
         xml:space="preserve"
         style="font-style:normal;font-weight:normal;font-size:10.58333302px;line-height:1.25;font-family:sans-serif;letter-spacing:0px;word-spacing:0px;fill:#ffffff;fill-opacity:1;stroke:none;stroke-width:0.26458332"
         x="76.78614"
         y="140.42921"
         id="text1029"><tspan
           sodipodi:role="line"
           id="tspan1027"
           x="76.78614"
           y="140.42921"
           style="font-style:normal;font-variant:normal;font-weight:normal;font-stretch:normal;font-family:'Liberation Sans';-inkscape-font-specification:'Liberation Sans';fill:#ffffff;stroke-width:0.26458332">$</tspan></text>
    </g>
    <circle
       style="fill:#000000;fill-opacity:1;stroke:#ffffff;stroke-width:1.09988606;stroke-miterlimit:4;stroke-dasharray:none;stroke-opacity:1"
       id="path997"
       cx="97.45694"
       cy="135.93605"
       r="6.8075905"
       clip-path="url(#clipPath1017)"
       transform="translate(-1.0213568,0.93671537)" />
    <path
       sodipodi:type="star"
       style="fill:#000000;fill-opacity:1;stroke:#ffffff;stroke-width:1;stroke-miterlimit:4;stroke-dasharray:none;stroke-opacity:1"
       id="path1021"
       sodipodi:sides="8"
       sodipodi:cx="111.0305"
       sodipodi:cy="129.08408"
       sodipodi:r1="6.930995"
       sodipodi:r2="6.4034042"
       sodipodi:arg1="0.52359878"
       sodipodi:arg2="0.91629786"
       inkscape:flatsided="true"
       inkscape:rounded="0"
       inkscape:randomized="0"
       d="m 117.03292,132.54957 -4.20854,3.22933 -5.25938,-0.69241 -3.22932,-4.20854 0.6924,-5.25937 4.20855,-3.22933 5.25937,0.69241 3.22933,4.20854 z"
       inkscape:transform-center-x="1.7105376e-06"
       transform="rotate(-7.5362307,169.60465,111.55771)" />
    <g
       id="g1048"
       transform="translate(0,16.463803)">
      <circle
         style="fill:#5c5c5c;fill-opacity:1;stroke:#ffffff;stroke-width:0.96773005;stroke-miterlimit:4;stroke-dasharray:none;stroke-opacity:1"
         id="circle1042"
         cx="79.700691"
         cy="136.87904"
         r="6.8799505" />
      <text
         id="text1046"
         y="140.42921"
         x="76.78614"
         style="font-style:normal;font-weight:normal;font-size:10.58333302px;line-height:1.25;font-family:sans-serif;letter-spacing:0px;word-spacing:0px;fill:#ffffff;fill-opacity:1;stroke:none;stroke-width:0.26458332"
         xml:space="preserve"><tspan
           style="font-style:normal;font-variant:normal;font-weight:normal;font-stretch:normal;font-family:'Liberation Sans';-inkscape-font-specification:'Liberation Sans';fill:#ffffff;stroke-width:0.26458332"
           y="140.42921"
           x="76.78614"
           id="tspan1044"
           sodipodi:role="line">$</tspan></text>
    </g>
    <g
       transform="translate(0,32.36634)"
       id="g1056">
      <circle
         r="6.8799505"
         cy="136.87904"
         cx="79.700691"
         id="circle1050"
         style="fill:#2c8481;fill-opacity:1;stroke:#ffffff;stroke-width:0.96773005;stroke-miterlimit:4;stroke-dasharray:none;stroke-opacity:1" />
      <text
         xml:space="preserve"
         style="font-style:normal;font-weight:normal;font-size:10.58333302px;line-height:1.25;font-family:sans-serif;letter-spacing:0px;word-spacing:0px;fill:#ffffff;fill-opacity:1;stroke:none;stroke-width:0.26458332"
         x="76.78614"
         y="140.42921"
         id="text1054"><tspan
           sodipodi:role="line"
           id="tspan1052"
           x="76.78614"
           y="140.42921"
           style="font-style:normal;font-variant:normal;font-weight:normal;font-stretch:normal;font-family:'Liberation Sans';-inkscape-font-specification:'Liberation Sans';fill:#ffffff;stroke-width:0.26458332">$</tspan></text>
    </g>
    <circle
       transform="translate(-1.0213568,17.173455)"
       clip-path="url(#clipPath1017)"
       r="6.8075905"
       cy="135.93605"
       cx="97.45694"
       id="circle1058"
       style="fill:#5c5c5c;fill-opacity:1;stroke:#ffffff;stroke-width:1.09988606;stroke-miterlimit:4;stroke-dasharray:none;stroke-opacity:1" />
    <circle
       style="fill:#2c8481;fill-opacity:1;stroke:#ffffff;stroke-width:1.09988606;stroke-miterlimit:4;stroke-dasharray:none;stroke-opacity:1"
       id="circle1060"
       cx="97.45694"
       cy="135.93605"
       r="6.8075905"
       clip-path="url(#clipPath1017)"
       transform="translate(-1.0213568,33.410195)" />
    <path
       transform="rotate(-7.5362307,296.72416,119.92993)"
       inkscape:transform-center-x="1.7105376e-06"
       d="m 117.03292,132.54957 -4.20854,3.22933 -5.25938,-0.69241 -3.22932,-4.20854 0.6924,-5.25937 4.20855,-3.22933 5.25937,0.69241 3.22933,4.20854 z"
       inkscape:randomized="0"
       inkscape:rounded="0"
       inkscape:flatsided="true"
       sodipodi:arg2="0.91629786"
       sodipodi:arg1="0.52359878"
       sodipodi:r2="6.4034042"
       sodipodi:r1="6.930995"
       sodipodi:cy="129.08408"
       sodipodi:cx="111.0305"
       sodipodi:sides="8"
       id="path1062"
       style="fill:#5c5c5c;fill-opacity:1;stroke:#ffffff;stroke-width:1;stroke-miterlimit:4;stroke-dasharray:none;stroke-opacity:1"
       sodipodi:type="star" />
    <path
       sodipodi:type="star"
       style="fill:#2c8481;fill-opacity:1;stroke:#ffffff;stroke-width:1;stroke-miterlimit:4;stroke-dasharray:none;stroke-opacity:1"
       id="path1064"
       sodipodi:sides="8"
       sodipodi:cx="111.0305"
       sodipodi:cy="129.08408"
       sodipodi:r1="6.930995"
       sodipodi:r2="6.4034042"
       sodipodi:arg1="0.52359878"
       sodipodi:arg2="0.91629786"
       inkscape:flatsided="true"
       inkscape:rounded="0"
       inkscape:randomized="0"
       d="m 117.03292,132.54957 -4.20854,3.22933 -5.25938,-0.69241 -3.22932,-4.20854 0.6924,-5.25937 4.20855,-3.22933 5.25937,0.69241 3.22933,4.20854 z"
       inkscape:transform-center-x="1.7105376e-06"
       transform="rotate(-7.5362307,418.87251,127.97474)" />
  </g>
</svg>
